HIERARCHY
ROOT simHips
{
  OFFSET -279.764 94.6628 142.677
  CHANNELS 6 Xposition Yposition Zposition Zrotation Xrotation Yrotation
  JOINT simSpine
  {
    OFFSET -0.000355721 21.3001 -0.016921
    CHANNELS 3 Zrotation Xrotation Yrotation
    JOINT simLeftArm
    {
      OFFSET 13.5181 21.3012 0
      CHANNELS 3 Zrotation Xrotation Yrotation
      JOINT simLeftForeArm
      {
        OFFSET 24.5783 0 0
        CHANNELS 3 Zrotation Xrotation Yrotation
        JOINT simLeftHand
        {
          OFFSET 24.5783 0 0
          CHANNELS 3 Zrotation Xrotation Yrotation
          End Site
          {
            OFFSET 7.32568 1.52588e-005 0.0169305
          }
        }
      }
    }
    JOINT simHead
    {
      OFFSET 0 27.4458 -0.00489235
      CHANNELS 3 Zrotation Xrotation Yrotation
      End Site
      {
        OFFSET 0 0 0
      }
    }
    JOINT simRightArm
    {
      OFFSET -13.5174 21.3012 0
      CHANNELS 3 Zrotation Xrotation Yrotation
      JOINT simRightForeArm
      {
        OFFSET -24.5783 0 0
        CHANNELS 3 Zrotation Xrotation Yrotation
        JOINT simRightHand
        {
          OFFSET -24.5783 0 0
          CHANNELS 3 Zrotation Xrotation Yrotation
          End Site
          {
            OFFSET -7.32568 1.52588e-005 0.0169305
          }
        }
      }
    }
  }
  JOINT simRightUpLeg
  {
    OFFSET -8.44614 -9.41038 0.835684
    CHANNELS 3 Zrotation Xrotation Yrotation
    JOINT simRightLeg
    {
      OFFSET 0 -40.9639 0
      CHANNELS 3 Zrotation Xrotation Yrotation
      JOINT simRightFoot
      {
        OFFSET 0 -40.9639 0
        CHANNELS 3 Zrotation Xrotation Yrotation
        End Site
        {
          OFFSET 0.50614 -9.67405 14.6709
        }
      }
    }
  }
  JOINT simLeftUpLeg
  {
    OFFSET 8.44614 -9.41038 0.835684
    CHANNELS 3 Zrotation Xrotation Yrotation
    JOINT simLeftLeg
    {
      OFFSET 0 -40.9639 0
      CHANNELS 3 Zrotation Xrotation Yrotation
      JOINT simLeftFoot
      {
        OFFSET 0 -40.9639 0
        CHANNELS 3 Zrotation Xrotation Yrotation
        End Site
        {
          OFFSET -0.50614 -9.67405 14.6709
        }
      }
    }
  }
}
MOTION
Frames:	12
Frame Time:	0.0333333
190.253 97.4645 320.634 -2.25556 -1.55001 90.613 0.507182 0.416199 -0.0917241 -57.5793 81.4573 14.7705 10.6367 -3.38568 -68.7219 62.7874 17.0674 -61.7933 7.56762 19.2964 -0.654228 50.4508 85.47 2.03898 -7.60699 -6.05921 64.3197 -65.3675 7.06622 42.9485 5.69477 3.77182 -0.0111719 0.944447 21.1086 1.67255 -2.04236 -13.8117 1.25755 -2.24415 -26.5015 -7.31863 0.47447 17.9905 0.00777683 -1.46869 5.44187 0.30664 
192.372 97.7255 320.513 -2.28177 -0.574536 90.0788 0.183449 0.402153 -0.0579407 -49.2088 83.1097 6.09661 10.6771 -3.36376 -69.108 63.3859 16.0786 -61.395 5.78705 19.8124 -0.189397 51.2168 85.2216 1.11756 -7.49991 -6.06399 62.9567 -65.1717 7.26263 43.1482 4.32972 3.84286 -0.325231 0.534468 22.8492 2.4639 -0.0754548 -11.6656 1.98652 -2.90939 -25.4437 -5.12969 0.388149 18.8034 -0.777889 -0.402968 3.8993 -0.376628 
194.418 97.968 320.37 -2.2953 0.183716 89.4774 -0.0260279 0.376762 -0.0094194 -36.0353 84.528 -6.84475 10.8126 -3.41881 -70.0179 62.6479 16.1775 -59.8698 3.71803 20.2749 0.757736 54.5344 84.7999 -2.79593 -7.48673 -6.08568 62.6826 -64.4665 8.37903 43.3447 3.00132 3.3128 -1.08584 0.0238679 25.3642 3.64029 2.49043 -8.70547 2.91581 -3.45239 -24.263 -3.11391 0.464808 19.2543 -1.54338 0.584495 2.80292 -0.972231 
196.362 98.0587 320.24 -2.23011 0.941247 88.7382 -0.19675 0.366908 0.0349824 -20.6049 85.2194 -22.013 10.9487 -3.47934 -71.0746 61.137 16.9291 -58.2951 1.47062 20.5668 2.09965 56.3726 84.6899 -5.83827 -7.53893 -6.11537 63.2253 -63.5279 9.68368 43.2658 1.5702 2.1827 -2.05835 -0.741269 28.8575 5.34497 5.03068 -5.4796 3.98897 -4.00132 -23.2461 -2.43173 0.175881 20.0676 -1.36247 1.23833 1.34177 -0.963025 
198.196 97.9928 320.131 -2.00952 1.86967 87.9577 -0.41837 0.402447 0.0569723 -5.61254 85.4595 -37.1648 11.053 -3.47285 -71.8517 59.9891 17.4746 -57.4347 -0.626873 20.6892 3.42809 54.116 85.1763 -5.00332 -7.58331 -6.13779 63.6928 -62.904 10.4391 43.1046 -0.216183 0.141249 -2.89613 -1.50568 33.9269 7.05879 7.69759 -1.69579 4.86191 -4.75487 -22.348 -2.91826 -0.511437 21.2678 -0.399127 1.66197 -0.3958 -0.493487 
199.861 97.6474 320.074 -1.71739 3.28689 87.1069 -0.775954 0.465385 0.0754797 10.2794 85.4541 -53.784 11.0797 -3.39221 -72.2666 59.616 17.26 -57.0479 -2.71847 20.6049 4.62298 43.7628 86.149 3.82527 -7.57319 -6.14662 63.5215 -62.99 10.5435 43.2812 -2.82863 -3.15789 -3.27531 -2.03484 40.9781 8.58466 11.247 2.06936 5.38925 -6.0507 -21.9246 -3.82927 -1.43654 23.204 0.951529 2.01749 -2.46964 0.164386 
201.362 97.1092 320.056 -1.48534 5.0114 86.2186 -1.21833 0.519316 0.0861637 26.8244 85.1074 -71.3663 11.0812 -3.27611 -72.4628 59.8024 16.2537 -56.6578 -4.81285 20.3005 5.71251 19.0509 87.0412 27.0942 -7.51139 -6.12854 62.8008 -63.693 10.24 43.7636 -5.99557 -7.47296 -3.36512 -2.55021 48.907 9.9382 16.2434 6.52275 5.27678 -7.67221 -21.9374 -4.45697 -2.37452 25.49 2.21102 2.34922 -4.62815 0.72719 
202.807 96.6052 320.054 -1.30254 6.58527 85.3629 -1.63157 0.556504 0.0729453 40.4599 84.4585 -86.0174 11.0732 -3.17926 -72.565 60.414 14.8834 -56.3181 -6.68935 19.8821 6.68405 -18.164 87.1604 63.1674 -7.42856 -6.07726 61.9489 -64.5759 9.66991 44.0198 -8.78216 -12.2855 -3.58667 -3.70247 56.5392 11.5131 20.0247 11.8949 4.51358 -9.10353 -21.8766 -4.46903 -3.12899 27.3859 3.06666 2.66915 -6.55256 1.05531 
204.186 96.159 320.095 -1.15713 7.92238 84.6575 -1.97357 0.584132 0.0232101 50.0746 83.7327 -96.5408 11.0584 -3.11797 -72.5585 61.2993 13.6641 -56.2365 -8.29786 19.4703 7.44821 -46.3346 86.481 90.3414 -7.3659 -6.02571 61.3468 -65.2841 8.95104 43.7265 -11.0285 -16.9641 -3.87441 -5.6936 62.947 13.2976 22.4834 17.1089 3.19879 -10.2413 -21.6803 -4.01275 -3.68785 28.8538 3.50504 2.93051 -8.2044 1.15879 
205.556 95.9128 320.166 -1.03975 8.70536 84.2883 -2.16439 0.611371 -0.0689046 57.8909 82.9736 -104.942 11.0226 -3.0603 -72.3878 62.1218 12.8112 -56.2693 -9.36006 19.176 7.8962 -56.4953 85.9315 99.8346 -7.35291 -6.0193 61.1733 -65.6702 8.4446 43.2839 -12.3423 -21.049 -4.06499 -8.16116 68.1884 15.6231 21.6385 17.2671 3.23527 -10.8373 -21.067 -3.43485 -4.01291 29.5905 3.56124 3.09831 -9.46322 1.09196 
206.918 95.8568 320.287 -0.974598 9.01247 84.3679 -2.22306 0.642514 -0.198979 65.3512 82.0025 -112.659 10.9613 -2.9741 -72.0875 62.6808 12.2441 -56.082 -9.8541 19.0315 7.99216 -50.0652 86.1505 92.9562 -7.38411 -6.07003 61.3927 -65.7096 8.57336 43.3749 -12.8076 -24.4246 -4.06427 -9.86396 71.6685 17.5192 17.3981 10.6654 4.94082 -10.9996 -20.1882 -2.98349 -4.18244 29.8491 3.34549 3.15681 -10.2893 0.898248 
208.303 96.0126 320.43 -0.970541 8.74702 84.8914 -2.14937 0.680655 -0.353853 72.4038 80.7885 -119.609 10.8925 -2.87277 -71.7542 62.9918 11.8306 -55.5655 -9.56962 18.9682 7.71317 -22.5832 86.6235 65.4217 -7.45301 -6.15081 61.8419 -65.437 9.36673 44.1334 -12.6148 -26.6732 -3.86468 -9.30392 72.096 16.0835 14.7405 4.2846 5.25833 -10.6468 -19.1098 -2.61579 -4.14057 29.8082 2.82514 3.09725 -10.7857 0.5692 
